<?xml version="1.0" encoding="utf-8"?>
<!-- Generator: Adobe Illustrator 23.0.3, SVG Export Plug-In . SVG Version: 6.00 Build 0)  -->
<svg version="1.1" id="Ebene_1" xmlns="http://www.w3.org/2000/svg" xmlns:xlink="http://www.w3.org/1999/xlink" x="0px" y="0px"
	 viewBox="0 0 208.2 43" style="enable-background:new 0 0 208.2 43;" xml:space="preserve">
<style type="text/css">
	.st0{fill:#0039A6;}
	.st1{fill-rule:evenodd;clip-rule:evenodd;fill:#0039A6;}
</style>
<polygon class="st0" points="72,12.9 71.5,14.9 58.6,14.9 57.3,20 70.2,20 69.6,22 56.7,22 55,28.7 67.8,28.7 67.3,30.7 51.2,30.7 
	55.9,12.9 "/>
<polygon class="st0" points="116.8,14.9 108.1,14.9 103.8,30.7 100.6,30.7 104.8,14.9 96,14.9 96.5,12.9 117.3,12.9 "/>
<polygon class="st0" points="139,12.9 134.2,30.7 131,30.7 133.3,22 121.1,22 118.7,30.7 115.5,30.7 120.2,12.9 123.5,12.9 
	121.6,20 133.8,20 135.7,12.9 "/>
<path class="st1" d="M164.4,19.2c0.1,1.5-0.2,3-0.7,4.5c-0.6,1.4-1.4,2.7-2.6,3.8c-1.2,1.1-2.6,2-4.4,2.7c-1.7,0.6-3.7,1-5.9,1
	c-2.9,0-5.2-0.6-6.9-1.7c-1.7-1.2-2.6-2.8-2.7-5c-0.1-1.6,0.2-3.1,0.8-4.6s1.5-2.7,2.6-3.8c1.1-1.1,2.6-1.9,4.4-2.6
	c1.8-0.6,3.7-1,5.8-1c2.9,0,5.2,0.6,6.9,1.7C163.4,15.4,164.3,17.1,164.4,19.2L164.4,19.2z M158.5,26.3c0.9-0.9,1.5-1.9,1.9-3
	c0.4-1.1,0.6-2.4,0.5-3.7c-0.1-1.6-0.7-2.9-1.9-3.7c-1.2-0.9-2.8-1.3-4.8-1.3c-1.6,0-3,0.3-4.2,0.8c-1.2,0.5-2.3,1.2-3.1,2.1
	c-0.8,0.9-1.5,1.9-1.9,3.1c-0.4,1.2-0.6,2.4-0.5,3.6c0.1,1.6,0.7,2.9,1.9,3.8c1.2,0.9,2.8,1.3,4.8,1.3c1.6,0,2.9-0.3,4.2-0.8
	C156.7,27.8,157.7,27.2,158.5,26.3L158.5,26.3z"/>
<polygon class="st0" points="182.1,30.7 166.5,30.7 171.3,12.9 174.6,12.9 170.4,28.7 182.6,28.7 "/>
<path class="st0" d="M74.4,21.8h6.8c1.1,0,2-0.1,2.8-0.2s1.5-0.4,2.1-0.8c0.7-0.4,1.2-0.9,1.6-1.5c0.4-0.6,0.5-1.3,0.5-1.9
	c0-0.4-0.1-0.8-0.3-1.1c-0.2-0.3-0.5-0.5-0.8-0.7c-0.4-0.3-0.9-0.4-1.6-0.5c-0.6-0.1-1.4-0.1-2.3-0.1h-6.9l0.5-2h6.7
	c1.5,0,2.7,0.1,3.7,0.2s1.8,0.4,2.5,0.8c0.6,0.3,1.1,0.7,1.5,1.2c0.4,0.5,0.6,1,0.6,1.7c0.1,1.5-0.5,2.8-1.7,3.9
	c-1.2,1.1-2.8,1.9-4.9,2.3l7.5,7.7h-3.8l-6.8-7.1h-4.7l-1.9,7.1h-3.3L74.4,21.8L74.4,21.8z"/>
<path class="st0" d="M190.9,20.1l-2.2,8.7h3.4c1.6,0,3-0.1,4.2-0.3s2.4-0.5,3.5-1c1.7-0.7,3-1.8,3.9-3.2c0.9-1.4,1.2-2.9,1.1-4.4
	c-0.1-0.9-0.3-1.7-0.8-2.4c-0.5-0.7-1.2-1.2-2.1-1.6c-0.9-0.4-1.9-0.7-2.9-0.9c-1-0.1-2.3-0.2-3.9-0.2h-6l0.5-1.9h5.7
	c1.8,0,3.4,0.1,4.9,0.3c1.5,0.2,2.8,0.6,4.1,1.1c1.2,0.6,2.1,1.3,2.8,2.2c0.7,0.9,1,2,1.1,3.2c0.1,2-0.5,3.8-1.8,5.5s-3.1,3.1-5.4,4
	c-1.4,0.6-2.9,1-4.4,1.1c-1.5,0.2-3.2,0.3-5.1,0.3h-6.6l2.8-10.6L190.9,20.1L190.9,20.1z"/>
<path class="st0" d="M47.4,22c-0.7-0.6-1.8-1-3.1-1.2l0-0.1c1.4-0.4,2.5-1,3.2-1.8s1.1-1.7,1.1-2.7c0-0.5-0.2-1-0.5-1.4
	c-0.3-0.4-0.8-0.8-1.4-1c-0.7-0.3-1.5-0.5-2.4-0.6c-0.9-0.1-2.2-0.1-4-0.1h-7l-0.5,2l7,0c1.1,0,2,0,2.7,0.1c0.7,0.1,1.3,0.2,1.8,0.4
	c0.3,0.1,0.5,0.3,0.7,0.6c0.2,0.2,0.3,0.5,0.3,0.8c0,0.5-0.1,1-0.5,1.5c-0.3,0.5-0.8,0.9-1.5,1.2c-0.5,0.2-1.1,0.4-1.8,0.5
	s-1.5,0.1-2.5,0.1h-7.6l-2.8,10.6h9c1.7,0,3.1-0.1,4.3-0.3c1.2-0.2,2.3-0.6,3.3-1.1c1.1-0.6,2-1.3,2.6-2.2c0.7-0.9,1-1.9,0.9-2.9
	C48.5,23.3,48.1,22.6,47.4,22z M44.5,26.5c-0.4,0.6-1,1.2-1.9,1.5c-0.7,0.3-1.4,0.5-2.4,0.6c-0.9,0.1-2.1,0.2-3.5,0.2h-4.5l1.8-6.8
	h5c1.2,0,2.2,0,2.8,0.1c0.7,0.1,1.3,0.2,1.7,0.4c0.5,0.2,0.9,0.5,1.2,0.8c0.2,0.3,0.3,0.6,0.4,1.1C45.1,25.1,45,25.8,44.5,26.5z"/>
<path class="st0" d="M49.9,1.5C45.8,0.5,41.3,0,36.6,0C16.4,0,0,9.6,0,21.5C0,33.4,16.4,43,36.6,43c12.2,0,22.9-3.5,29.5-8.9
	c-6.3,3.7-15.3,6-25,6c-19,0-34.4-8.8-34.4-19.6C6.7,9.7,22.1,0.9,41.1,0.9C44.1,0.9,47.1,1,49.9,1.5L49.9,1.5z"/>
</svg>
